<svg width="52" height="52" viewBox="0 0 52 52" fill="none" xmlns="http://www.w3.org/2000/svg">
<path d="M4.33337 14.8333C4.33337 12.9477 4.33337 12.0049 4.91916 11.4191C5.50495 10.8333 6.44776 10.8333 8.33337 10.8333H43.6667C45.5523 10.8333 46.4951 10.8333 47.0809 11.4191C47.6667 12.0049 47.6667 12.9477 47.6667 14.8333V20.6667C47.6667 21.1381 47.6667 21.3738 47.5203 21.5202C47.3738 21.6667 47.1381 21.6667 46.6667 21.6667H5.33337C4.86197 21.6667 4.62627 21.6667 4.47982 21.5202C4.33337 21.3738 4.33337 21.1381 4.33337 20.6667V14.8333Z" fill="white"/>
<path fill-rule="evenodd" clip-rule="evenodd" d="M4.33337 43.6667C4.33337 45.5523 4.33337 46.4951 4.91916 47.0809C5.50495 47.6667 6.44776 47.6667 8.33337 47.6667H43.6667C45.5523 47.6667 46.4951 47.6667 47.0809 47.0809C47.6667 46.4951 47.6667 45.5523 47.6667 43.6667V27C47.6667 26.5286 47.6667 26.2929 47.5203 26.1464C47.3738 26 47.1381 26 46.6667 26H5.33337C4.86197 26 4.62627 26 4.47982 26.1464C4.33337 26.2929 4.33337 26.5286 4.33337 27V43.6667ZM15.1667 31.3333C15.1667 30.8619 15.1667 30.6262 15.3132 30.4798C15.4596 30.3333 15.6953 30.3333 16.1667 30.3333H22.8334C23.3048 30.3333 23.5405 30.3333 23.6869 30.4798C23.8334 30.6262 23.8334 30.8619 23.8334 31.3333V33.6667C23.8334 34.1381 23.8334 34.3738 23.6869 34.5202C23.5405 34.6667 23.3048 34.6667 22.8334 34.6667H16.1667C15.6953 34.6667 15.4596 34.6667 15.3132 34.5202C15.1667 34.3738 15.1667 34.1381 15.1667 33.6667V31.3333ZM15.3132 39.1464C15.1667 39.2929 15.1667 39.5286 15.1667 40V42.3333C15.1667 42.8047 15.1667 43.0404 15.3132 43.1869C15.4596 43.3333 15.6953 43.3333 16.1667 43.3333H22.8334C23.3048 43.3333 23.5405 43.3333 23.6869 43.1869C23.8334 43.0404 23.8334 42.8047 23.8334 42.3333V40C23.8334 39.5286 23.8334 39.2929 23.6869 39.1464C23.5405 39 23.3048 39 22.8334 39H16.1667C15.6953 39 15.4596 39 15.3132 39.1464ZM28.1667 31.3333C28.1667 30.8619 28.1667 30.6262 28.3132 30.4798C28.4596 30.3333 28.6953 30.3333 29.1667 30.3333H35.8334C36.3048 30.3333 36.5405 30.3333 36.6869 30.4798C36.8334 30.6262 36.8334 30.8619 36.8334 31.3333V33.6667C36.8334 34.1381 36.8334 34.3738 36.6869 34.5202C36.5405 34.6667 36.3048 34.6667 35.8334 34.6667H29.1667C28.6953 34.6667 28.4596 34.6667 28.3132 34.5202C28.1667 34.3738 28.1667 34.1381 28.1667 33.6667V31.3333ZM28.3132 39.1464C28.1667 39.2929 28.1667 39.5286 28.1667 40V42.3333C28.1667 42.8047 28.1667 43.0404 28.3132 43.1869C28.4596 43.3333 28.6953 43.3333 29.1667 43.3333H35.8334C36.3048 43.3333 36.5405 43.3333 36.6869 43.1869C36.8334 43.0404 36.8334 42.8047 36.8334 42.3333V40C36.8334 39.5286 36.8334 39.2929 36.6869 39.1464C36.5405 39 36.3048 39 35.8334 39H29.1667C28.6953 39 28.4596 39 28.3132 39.1464Z" fill="white"/>
<path d="M15.1666 6.5L15.1666 13" stroke="white" stroke-width="2" stroke-linecap="round"/>
<path d="M36.8334 6.5L36.8334 13" stroke="white" stroke-width="2" stroke-linecap="round"/>
</svg>
