<svg width="52" height="52" viewBox="0 0 52 52" fill="none" xmlns="http://www.w3.org/2000/svg">
<path fill-rule="evenodd" clip-rule="evenodd" d="M11.428 21.94C10.8334 23.233 10.8334 24.7039 10.8334 27.6457V36.8332C10.8334 40.9187 10.8334 42.9615 12.1026 44.2307C13.3718 45.4999 15.4145 45.4999 19.5 45.4999H19.5834V34.6667C19.5834 32.9178 21.0011 31.5 22.75 31.5H29.25C30.9989 31.5 32.4167 32.9178 32.4167 34.6667V45.4999H32.5C36.5855 45.4999 38.6283 45.4999 39.8975 44.2307C41.1667 42.9615 41.1667 40.9187 41.1667 36.8332V27.6457C41.1667 24.7039 41.1667 23.233 40.572 21.94C39.9774 20.6471 38.8606 19.6899 36.627 17.7754L34.4603 15.9182C30.4231 12.4578 28.4045 10.7275 26 10.7275C23.5955 10.7275 21.5769 12.4578 17.5398 15.9182L15.3731 17.7754C13.1395 19.6899 12.0227 20.6471 11.428 21.94ZM30.4167 45.4999V34.6667C30.4167 34.0223 29.8944 33.5 29.25 33.5H22.75C22.1057 33.5 21.5834 34.0223 21.5834 34.6667V45.4999H30.4167Z" fill="white"/>
</svg>
