<svg width="52" height="52" viewBox="0 0 52 52" fill="none" xmlns="http://www.w3.org/2000/svg">
<path fill-rule="evenodd" clip-rule="evenodd" d="M14.2124 6.40144L34.2353 3.25499C37.4559 2.7489 39.0662 2.49585 40.1164 3.39397C41.1667 4.29209 41.1667 5.92215 41.1667 9.18225V24.9991H25.914L33.2809 15.7905L31.7192 14.5411L23.0525 25.3744L22.5527 25.9991L23.0525 26.6238L31.7192 37.4571L33.2809 36.2077L25.914 26.9991H41.1667V42.8159C41.1667 46.0761 41.1667 47.7061 40.1164 48.6042C39.0662 49.5024 37.4559 49.2493 34.2353 48.7432L14.2124 45.5968C12.5997 45.3433 11.7933 45.2166 11.3133 44.6553C10.8334 44.094 10.8334 43.2778 10.8334 41.6453V10.353C10.8334 8.72043 10.8334 7.90417 11.3133 7.34288C11.7933 6.78159 12.5997 6.65487 14.2124 6.40144Z" fill="white"/>
</svg>
