<svg width="52" height="52" viewBox="0 0 52 52" fill="none" xmlns="http://www.w3.org/2000/svg">
<path fill-rule="evenodd" clip-rule="evenodd" d="M4.33337 26C4.33337 14.0338 14.0339 4.33333 26 4.33333C37.9662 4.33333 47.6667 14.0338 47.6667 26C47.6667 32.9758 44.37 39.1817 39.2496 43.1446C38.3601 40.5382 36.7186 38.2447 34.5227 36.5597C32.0777 34.6836 29.0819 33.6667 26 33.6667C22.9182 33.6667 19.9224 34.6836 17.4774 36.5597C15.2814 38.2447 13.64 40.5382 12.7505 43.1446C7.63006 39.1817 4.33337 32.9758 4.33337 26ZM33.3052 38.1464C35.342 39.7093 36.8223 41.883 37.5316 44.3464C34.1921 46.4498 30.2382 47.6667 26 47.6667C21.7619 47.6667 17.8079 46.4498 14.4685 44.3464C15.1778 41.883 16.6581 39.7093 18.6949 38.1464C20.7906 36.5383 23.3584 35.6667 26 35.6667C28.6417 35.6667 31.2095 36.5383 33.3052 38.1464ZM20.5 19.5C20.5 16.4624 22.9625 14 26 14C29.0376 14 31.5 16.4624 31.5 19.5C31.5 22.5376 29.0376 25 26 25C22.9625 25 20.5 22.5376 20.5 19.5ZM26 12C21.8579 12 18.5 15.3579 18.5 19.5C18.5 23.6421 21.8579 27 26 27C30.1422 27 33.5 23.6421 33.5 19.5C33.5 15.3579 30.1422 12 26 12Z" fill="white"/>
<rect x="4.83337" y="4.83333" width="42.3333" height="42.3333" rx="21.1667" stroke="white"/>
</svg>
